<svg width="1611" height="453" viewBox="0 0 1611 453" fill="none" xmlns="http://www.w3.org/2000/svg">
<circle cx="352" cy="389" r="5" stroke="#8AC5FC" stroke-width="2"/>
<circle cx="1051" cy="387" r="5" stroke="#8AC5FC" stroke-width="2"/>
<circle cx="821" cy="388" r="5" stroke="#8AC5FC" stroke-width="2"/>
<circle cx="555" cy="388" r="5" stroke="#8AC5FC" stroke-width="2"/>
<circle cx="1257" cy="388" r="5" stroke="#8AC5FC" stroke-width="2"/>
<line y1="388.103" x2="1614" y2="388.103" stroke="#29557C" stroke-width="2"/>
<path d="M883 386.001C883 385.333 882.99 384.667 882.97 384.003L881.971 384.033C881.932 382.717 881.853 381.41 881.737 380.115L882.733 380.025C882.614 378.695 882.455 377.375 882.257 376.069L881.269 376.218C881.072 374.917 880.837 373.628 880.565 372.354L881.543 372.145C881.264 370.839 880.946 369.547 880.591 368.271L879.628 368.539C879.276 367.274 878.886 366.024 878.461 364.79L879.406 364.464C878.971 363.204 878.499 361.961 877.991 360.737L877.068 361.12C876.565 359.908 876.027 358.714 875.454 357.54L876.353 357.102C875.769 355.905 875.15 354.728 874.497 353.572L873.626 354.064C872.981 352.923 872.302 351.803 871.591 350.706L872.431 350.162C871.707 349.045 870.951 347.952 870.163 346.883L869.358 347.476C868.581 346.422 867.772 345.392 866.934 344.387L867.702 343.746C866.85 342.725 865.968 341.73 865.057 340.763L864.329 341.449C863.432 340.496 862.506 339.57 861.553 338.672L862.238 337.944C861.271 337.033 860.276 336.151 859.255 335.299L858.614 336.067C857.61 335.229 856.579 334.421 855.525 333.643L856.118 332.838C855.049 332.051 853.956 331.294 852.839 330.571L852.295 331.41C851.198 330.699 850.078 330.021 848.937 329.375L849.429 328.505C848.273 327.852 847.096 327.233 845.899 326.649L845.461 327.547C844.287 326.975 843.093 326.437 841.881 325.934L842.264 325.01C841.04 324.503 839.797 324.031 838.537 323.596L838.211 324.541C836.977 324.116 835.727 323.726 834.462 323.374L834.73 322.411C833.454 322.056 832.162 321.738 830.856 321.459L830.647 322.437C829.373 322.165 828.084 321.93 826.783 321.733L826.932 320.744C825.625 320.547 824.306 320.388 822.976 320.269L822.886 321.265C821.591 321.148 820.284 321.07 818.968 321.031L818.998 320.031C818.334 320.012 817.668 320.002 817 320.002C816.332 320.002 815.666 320.012 815.002 320.031L815.032 321.031C813.716 321.07 812.409 321.148 811.114 321.265L811.024 320.269C809.694 320.388 808.375 320.547 807.068 320.744L807.217 321.733C805.916 321.93 804.627 322.165 803.353 322.437L803.144 321.459C801.838 321.738 800.546 322.056 799.27 322.411L799.538 323.374C798.273 323.726 797.023 324.116 795.789 324.541L795.463 323.596C794.203 324.031 792.96 324.503 791.736 325.01L792.119 325.934C790.907 326.437 789.713 326.975 788.539 327.547L788.101 326.649C786.904 327.233 785.727 327.852 784.571 328.505L785.063 329.375C783.922 330.021 782.802 330.699 781.705 331.41L781.161 330.571C780.044 331.294 778.951 332.051 777.882 332.838L778.475 333.643C777.421 334.421 776.39 335.229 775.386 336.067L774.745 335.299C773.724 336.151 772.729 337.033 771.762 337.944L772.447 338.672C771.494 339.57 770.568 340.496 769.671 341.449L768.943 340.763C768.032 341.73 767.15 342.725 766.298 343.746L767.066 344.387C766.228 345.392 765.419 346.422 764.642 347.476L763.837 346.883C763.049 347.952 762.293 349.045 761.569 350.162L762.409 350.706C761.698 351.803 761.019 352.923 760.374 354.064L759.503 353.572C758.85 354.728 758.231 355.905 757.647 357.102L758.546 357.54C757.973 358.714 757.435 359.908 756.932 361.12L756.009 360.737C755.501 361.961 755.029 363.204 754.594 364.464L755.539 364.79C755.114 366.024 754.724 367.274 754.372 368.539L753.409 368.271C753.054 369.547 752.736 370.839 752.457 372.145L753.435 372.354C753.163 373.628 752.928 374.917 752.731 376.218L751.743 376.069C751.545 377.375 751.386 378.695 751.267 380.025L752.263 380.115C752.147 381.41 752.068 382.717 752.029 384.033L751.03 384.003C751.01 384.667 751 385.333 751 386.001C751 386.669 751.01 387.335 751.03 387.999L752.029 387.969C752.068 389.285 752.147 390.592 752.263 391.887L751.267 391.977C751.386 393.307 751.545 394.626 751.743 395.933L752.731 395.784C752.928 397.085 753.163 398.374 753.435 399.648L752.457 399.857C752.736 401.163 753.054 402.455 753.409 403.731L754.372 403.462C754.724 404.728 755.114 405.978 755.539 407.212L754.594 407.538C755.029 408.798 755.501 410.041 756.009 411.265L756.932 410.882C757.435 412.094 757.973 413.288 758.546 414.462L757.647 414.9C758.231 416.097 758.85 417.274 759.503 418.43L760.374 417.938C761.019 419.079 761.698 420.199 762.409 421.296L761.569 421.84C762.293 422.957 763.049 424.05 763.837 425.119L764.642 424.525C765.419 425.58 766.228 426.61 767.066 427.615L766.298 428.256C767.15 429.277 768.032 430.271 768.943 431.239L769.671 430.553C770.568 431.506 771.494 432.432 772.447 433.33L771.762 434.058C772.729 434.969 773.724 435.851 774.745 436.703L775.386 435.935C776.39 436.773 777.421 437.581 778.475 438.359L777.882 439.164C778.951 439.951 780.044 440.708 781.161 441.431L781.705 440.592C782.802 441.303 783.922 441.981 785.063 442.626L784.571 443.497C785.727 444.15 786.904 444.769 788.101 445.353L788.539 444.454C789.713 445.027 790.907 445.565 792.119 446.068L791.736 446.992C792.96 447.499 794.203 447.971 795.463 448.406L795.789 447.461C797.023 447.886 798.273 448.276 799.538 448.628L799.27 449.591C800.546 449.946 801.838 450.264 803.144 450.543L803.353 449.565C804.627 449.837 805.916 450.072 807.217 450.269L807.068 451.257C808.375 451.455 809.694 451.614 811.024 451.733L811.114 450.737C812.409 450.853 813.716 450.932 815.032 450.971L815.002 451.97C815.666 451.99 816.332 452 817 452C817.668 452 818.334 451.99 818.998 451.97L818.968 450.971C820.284 450.932 821.591 450.853 822.886 450.737L822.976 451.733C824.306 451.614 825.625 451.455 826.932 451.257L826.783 450.269C828.084 450.072 829.373 449.837 830.647 449.565L830.856 450.543C832.162 450.264 833.454 449.946 834.73 449.591L834.462 448.628C835.727 448.276 836.977 447.886 838.211 447.461L838.537 448.406C839.797 447.971 841.04 447.499 842.264 446.992L841.881 446.068C843.093 445.565 844.287 445.027 845.461 444.454L845.899 445.353C847.096 444.769 848.273 444.15 849.429 443.497L848.937 442.626C850.078 441.981 851.198 441.303 852.295 440.592L852.839 441.431C853.956 440.708 855.049 439.951 856.118 439.164L855.525 438.359C856.579 437.581 857.61 436.773 858.614 435.935L859.255 436.703C860.276 435.851 861.271 434.969 862.238 434.058L861.553 433.33C862.506 432.432 863.432 431.506 864.329 430.553L865.057 431.239C865.968 430.271 866.85 429.277 867.702 428.256L866.934 427.615C867.772 426.61 868.581 425.58 869.358 424.525L870.163 425.119C870.951 424.05 871.707 422.957 872.431 421.84L871.591 421.296C872.302 420.199 872.981 419.079 873.626 417.938L874.497 418.43C875.15 417.274 875.769 416.097 876.353 414.9L875.454 414.462C876.027 413.288 876.565 412.094 877.068 410.882L877.991 411.265C878.499 410.041 878.971 408.798 879.406 407.538L878.461 407.212C878.886 405.978 879.276 404.728 879.628 403.462L880.591 403.731C880.946 402.455 881.264 401.163 881.543 399.857L880.565 399.648C880.837 398.374 881.072 397.085 881.269 395.784L882.257 395.933C882.455 394.626 882.614 393.307 882.733 391.977L881.737 391.887C881.853 390.592 881.932 389.285 881.971 387.969L882.97 387.999C882.99 387.335 883 386.669 883 386.001Z" stroke="#8AC5FC" stroke-opacity="0.31" stroke-width="2" stroke-dasharray="4 4"/>
<line y1="-1" x2="451.284" y2="-1" transform="matrix(0.528379 0.849009 -0.948575 0.316553 111 2.46448)" stroke="url(#paint0_linear_161_8)" stroke-width="2"/>
<line y1="-1" x2="451.284" y2="-1" transform="matrix(0.528379 0.849009 -0.948575 0.316553 317 2.56628)" stroke="url(#paint1_linear_161_8)" stroke-width="2"/>
<line y1="-1" x2="451.284" y2="-1" transform="matrix(0.528379 0.849009 -0.948575 0.316553 810 1)" stroke="url(#paint2_linear_161_8)" stroke-width="2"/>
<line y1="-1" x2="451.284" y2="-1" transform="matrix(0.528379 0.849009 -0.948575 0.316553 1019 3.34937)" stroke="url(#paint3_linear_161_8)" stroke-width="2"/>
<defs>
<linearGradient id="paint0_linear_161_8" x1="346.214" y1="0" x2="-40.0471" y2="0" gradientUnits="userSpaceOnUse">
<stop stop-color="#8AC5FC" stop-opacity="0.24"/>
<stop stop-color="#8AC5FC" stop-opacity="0"/>
<stop offset="0.0001" stop-color="#8AC5FC" stop-opacity="0.59"/>
<stop offset="0.401042" stop-color="#8AC5FC" stop-opacity="0"/>
<stop offset="0.828125" stop-color="#8AC5FC" stop-opacity="0.03"/>
</linearGradient>
<linearGradient id="paint1_linear_161_8" x1="346.214" y1="0" x2="-40.0471" y2="0" gradientUnits="userSpaceOnUse">
<stop stop-color="#8AC5FC" stop-opacity="0.24"/>
<stop stop-color="#8AC5FC" stop-opacity="0"/>
<stop offset="0.0001" stop-color="#8AC5FC" stop-opacity="0.59"/>
<stop offset="0.401042" stop-color="#8AC5FC" stop-opacity="0"/>
<stop offset="0.828125" stop-color="#8AC5FC" stop-opacity="0.03"/>
</linearGradient>
<linearGradient id="paint2_linear_161_8" x1="346.214" y1="0" x2="-40.0471" y2="0" gradientUnits="userSpaceOnUse">
<stop stop-color="#8AC5FC" stop-opacity="0.24"/>
<stop stop-color="#8AC5FC" stop-opacity="0"/>
<stop offset="0.0001" stop-color="#8AC5FC" stop-opacity="0.59"/>
<stop offset="0.401042" stop-color="#8AC5FC" stop-opacity="0"/>
<stop offset="0.828125" stop-color="#8AC5FC" stop-opacity="0.03"/>
</linearGradient>
<linearGradient id="paint3_linear_161_8" x1="346.214" y1="0" x2="-40.0471" y2="0" gradientUnits="userSpaceOnUse">
<stop stop-color="#8AC5FC" stop-opacity="0.24"/>
<stop stop-color="#8AC5FC" stop-opacity="0"/>
<stop offset="0.0001" stop-color="#8AC5FC" stop-opacity="0.59"/>
<stop offset="0.401042" stop-color="#8AC5FC" stop-opacity="0"/>
<stop offset="0.828125" stop-color="#8AC5FC" stop-opacity="0.03"/>
</linearGradient>
</defs>
</svg>
